# xmcd CD database file
#
# Track frame offsets:
#        150
#        19368
#        35939
#        57024
#        70923
#        90145
#        109973
#        126127
#        151944
#        166051
#        186118
#        207964
#
# Disc length: 3057 seconds
#
# Revision: 0
# Processed by: cddbd v1.5.2PL0 Copyright (c) Steve Scherf et al.
# Submitted via: CUERipper 2.1.4
#
DISCID=9c0bef0c
DTITLE=Mark Knopfler and Emmylou Harris - All the Roadrunning
DYEAR=2006
DGENRE=
TTITLE0=Beachcombing
TTITLE1=I Dug Up a Diamond
TTITLE2=This Is Us
TTITLE3=Red Staggerwing
TTITLE4=Rollin' On
TTITLE5=Love and Happiness
TTITLE6=Right Now
TTITLE7=Donkey Town
TTITLE8=Belle Starr
TTITLE9=Beyond My Wildest Dreams
TTITLE10=All the Roadrunning
TTITLE11=If This Is Goodbye
EXTD=
EXTT0=
EXTT1=
EXTT2=
EXTT3=
EXTT4=
EXTT5=
EXTT6=
EXTT7=
EXTT8=
EXTT9=
EXTT10=
EXTT11=
PLAYORDER=
